<?xml version="1.0" encoding="UTF-8" standalone="no"?>
<svg width="1001px" height="991px" viewBox="0 0 1001 991" version="1.1" xmlns="http://www.w3.org/2000/svg" xmlns:xlink="http://www.w3.org/1999/xlink">
    <!-- Generator: Sketch 3.6.1 (26313) - http://www.bohemiancoding.com/sketch -->
    <title>Slice 1</title>
    <desc>Created with Sketch.</desc>
    <defs></defs>
    <g id="Page-1" stroke="none" stroke-width="1" fill="none" fill-rule="evenodd">
        <g id="link" fill="#000000">
            <g id="Page-1">
                <g id="link">
                    <path d="M572.8,770.3 L422.4,919.3 C376.1,965.2 313.3,991 247.8,991 C182.3,991 119.5,965.2 73.3,919.3 C26.8,873.5 0.8,811.2 1,746.3 C1,681.1 26.6,619.6 73.2,573.4 L276,372.6 C374.1,275.4 530.7,279.3 625,372.6 C643.9,391.3 658.7,412.8 670.4,435.7 C670.4,435.7 605.1,500.5 604,501.4 C596.6,475.7 582.8,452.2 563.8,433.2 C503.4,373.4 400.1,370.9 337.1,433.2 C337,433.2 337.1,433.2 337.1,433.2 L134.3,634.1 C71.8,696.1 71.8,796.6 134.3,858.6 C196.9,920.6 298.4,920.6 361,858.6 L462,758.5 C503.3,770.2 536.6,772.3 572.5,770.2 L572.8,770.3 L572.8,770.3 Z M430.6,219.6 C467.9,217 505.3,220.9 541.1,231.3 L640.8,132.6 C703.4,70.7 804.8,70.7 867.5,132.6 C930.1,194.6 930.1,295.2 867.5,357.2 L666.2,556.6 C606.1,616 504.1,620.8 439.4,556.6 C420.5,537.7 406.8,514.4 399.6,488.8 C398.5,489.8 397.1,490.6 396.1,491.6 L332.9,554.1 C344.6,577 359.4,598.5 378.2,617.2 C471.7,709.9 628.4,715.2 727.3,617.2 L928.6,417.8 C975,372 1001,309.8 1001,245 C1001,180.2 975,117.9 928.6,72.1 C882.4,26.1 819.6,0.3 754.1,0.3 C688.6,0.3 625.8,26.1 579.5,72 C505,145.8 430.6,219.6 430.6,219.6 L430.6,219.6 Z" id="Shape"></path>
                </g>
            </g>
        </g>
    </g>
</svg>